<mxfile host="app.diagrams.net" agent="Mozilla/5.0 (Macintosh; Intel Mac OS X 10_15_7) AppleWebKit/605.1.15 (KHTML, like Gecko) Version/18.6 Safari/605.1.15" version="28.1.2">
  <diagram name="Page-1" id="2i1mK6InMXPL2LsYngwx">
    <mxGraphModel dx="1186" dy="864" grid="1" gridSize="10" guides="1" tooltips="1" connect="1" arrows="1" fold="1" page="1" pageScale="1" pageWidth="827" pageHeight="1169" math="0" shadow="0">
      <root>
        <mxCell id="0" />
        <mxCell id="1" parent="0" />
        <mxCell id="JUuz6orLKMEw3ZamBeSm-3" style="edgeStyle=orthogonalEdgeStyle;rounded=0;orthogonalLoop=1;jettySize=auto;html=1;entryX=0.5;entryY=0;entryDx=0;entryDy=0;fontFamily=Times New Roman;fontSize=15;" parent="1" source="JUuz6orLKMEw3ZamBeSm-1" target="JUuz6orLKMEw3ZamBeSm-2" edge="1">
          <mxGeometry relative="1" as="geometry">
            <Array as="points">
              <mxPoint x="280" y="320" />
              <mxPoint x="570" y="320" />
            </Array>
          </mxGeometry>
        </mxCell>
        <mxCell id="JUuz6orLKMEw3ZamBeSm-4" value="Incrementa solução" style="edgeLabel;html=1;align=center;verticalAlign=middle;resizable=0;points=[];fontFamily=Times New Roman;fontSize=15;" parent="JUuz6orLKMEw3ZamBeSm-3" vertex="1" connectable="0">
          <mxGeometry x="-0.0061" y="-1" relative="1" as="geometry">
            <mxPoint x="6" y="-11" as="offset" />
          </mxGeometry>
        </mxCell>
        <mxCell id="JUuz6orLKMEw3ZamBeSm-1" value="Agente" style="rounded=1;whiteSpace=wrap;html=1;strokeWidth=2;fontFamily=Times New Roman;fontSize=15;" parent="1" vertex="1">
          <mxGeometry x="220" y="340" width="120" height="60" as="geometry" />
        </mxCell>
        <mxCell id="JUuz6orLKMEw3ZamBeSm-5" style="edgeStyle=orthogonalEdgeStyle;rounded=0;orthogonalLoop=1;jettySize=auto;html=1;entryX=0.5;entryY=1;entryDx=0;entryDy=0;fontFamily=Times New Roman;fontSize=15;" parent="1" source="JUuz6orLKMEw3ZamBeSm-2" target="JUuz6orLKMEw3ZamBeSm-1" edge="1">
          <mxGeometry relative="1" as="geometry">
            <Array as="points">
              <mxPoint x="570" y="420" />
              <mxPoint x="280" y="420" />
            </Array>
          </mxGeometry>
        </mxCell>
        <mxCell id="JUuz6orLKMEw3ZamBeSm-6" value="Recompensa" style="edgeLabel;html=1;align=center;verticalAlign=middle;resizable=0;points=[];fontFamily=Times New Roman;fontSize=15;" parent="JUuz6orLKMEw3ZamBeSm-5" vertex="1" connectable="0">
          <mxGeometry x="-0.0556" y="1" relative="1" as="geometry">
            <mxPoint x="-4" y="-11" as="offset" />
          </mxGeometry>
        </mxCell>
        <mxCell id="JUuz6orLKMEw3ZamBeSm-2" value="Grafo" style="rounded=1;whiteSpace=wrap;html=1;strokeWidth=2;fontFamily=Times New Roman;fontSize=15;" parent="1" vertex="1">
          <mxGeometry x="510" y="340" width="120" height="60" as="geometry" />
        </mxCell>
        <mxCell id="JUuz6orLKMEw3ZamBeSm-7" style="edgeStyle=orthogonalEdgeStyle;rounded=0;orthogonalLoop=1;jettySize=auto;html=1;entryX=0.5;entryY=1;entryDx=0;entryDy=0;exitX=0.5;exitY=1;exitDx=0;exitDy=0;fontFamily=Times New Roman;fontSize=15;" parent="1" source="JUuz6orLKMEw3ZamBeSm-2" target="JUuz6orLKMEw3ZamBeSm-1" edge="1">
          <mxGeometry relative="1" as="geometry">
            <mxPoint x="570" y="420" as="sourcePoint" />
            <mxPoint x="280" y="420" as="targetPoint" />
            <Array as="points">
              <mxPoint x="570" y="450" />
              <mxPoint x="280" y="450" />
            </Array>
          </mxGeometry>
        </mxCell>
        <mxCell id="JUuz6orLKMEw3ZamBeSm-8" value="Estado" style="edgeLabel;html=1;align=center;verticalAlign=middle;resizable=0;points=[];fontFamily=Times New Roman;fontSize=15;" parent="JUuz6orLKMEw3ZamBeSm-7" vertex="1" connectable="0">
          <mxGeometry x="-0.0556" y="1" relative="1" as="geometry">
            <mxPoint x="-6" y="-11" as="offset" />
          </mxGeometry>
        </mxCell>
        <mxCell id="KW5WF26nbx8zZvVIEH4P-1" style="edgeStyle=orthogonalEdgeStyle;rounded=0;orthogonalLoop=1;jettySize=auto;html=1;entryX=0.5;entryY=0;entryDx=0;entryDy=0;fontFamily=Times New Roman;fontSize=15;" parent="1" source="KW5WF26nbx8zZvVIEH4P-3" target="KW5WF26nbx8zZvVIEH4P-6" edge="1">
          <mxGeometry relative="1" as="geometry">
            <Array as="points">
              <mxPoint x="269" y="585" />
              <mxPoint x="559" y="585" />
            </Array>
          </mxGeometry>
        </mxCell>
        <mxCell id="KW5WF26nbx8zZvVIEH4P-2" value="Interage" style="edgeLabel;html=1;align=center;verticalAlign=middle;resizable=0;points=[];fontFamily=Times New Roman;fontSize=15;" parent="KW5WF26nbx8zZvVIEH4P-1" vertex="1" connectable="0">
          <mxGeometry x="-0.0061" y="-1" relative="1" as="geometry">
            <mxPoint x="-3" y="-11" as="offset" />
          </mxGeometry>
        </mxCell>
        <mxCell id="KW5WF26nbx8zZvVIEH4P-3" value="Agente" style="rounded=1;whiteSpace=wrap;html=1;strokeWidth=2;fontFamily=Times New Roman;fontSize=15;" parent="1" vertex="1">
          <mxGeometry x="209" y="605" width="120" height="60" as="geometry" />
        </mxCell>
        <mxCell id="KW5WF26nbx8zZvVIEH4P-4" style="edgeStyle=orthogonalEdgeStyle;rounded=0;orthogonalLoop=1;jettySize=auto;html=1;entryX=0.5;entryY=1;entryDx=0;entryDy=0;fontFamily=Times New Roman;fontSize=15;" parent="1" source="KW5WF26nbx8zZvVIEH4P-6" target="KW5WF26nbx8zZvVIEH4P-3" edge="1">
          <mxGeometry relative="1" as="geometry">
            <Array as="points">
              <mxPoint x="559" y="685" />
              <mxPoint x="269" y="685" />
            </Array>
          </mxGeometry>
        </mxCell>
        <mxCell id="KW5WF26nbx8zZvVIEH4P-5" value="Recompensa" style="edgeLabel;html=1;align=center;verticalAlign=middle;resizable=0;points=[];fontFamily=Times New Roman;fontSize=15;" parent="KW5WF26nbx8zZvVIEH4P-4" vertex="1" connectable="0">
          <mxGeometry x="-0.0556" y="1" relative="1" as="geometry">
            <mxPoint x="-14" y="-11" as="offset" />
          </mxGeometry>
        </mxCell>
        <mxCell id="KW5WF26nbx8zZvVIEH4P-6" value="Ambiente" style="rounded=1;whiteSpace=wrap;html=1;strokeWidth=2;fontFamily=Times New Roman;fontSize=15;" parent="1" vertex="1">
          <mxGeometry x="499" y="605" width="120" height="60" as="geometry" />
        </mxCell>
        <mxCell id="KW5WF26nbx8zZvVIEH4P-7" style="edgeStyle=orthogonalEdgeStyle;rounded=0;orthogonalLoop=1;jettySize=auto;html=1;entryX=0.5;entryY=1;entryDx=0;entryDy=0;exitX=0.5;exitY=1;exitDx=0;exitDy=0;fontFamily=Times New Roman;fontSize=15;" parent="1" source="KW5WF26nbx8zZvVIEH4P-6" target="KW5WF26nbx8zZvVIEH4P-3" edge="1">
          <mxGeometry relative="1" as="geometry">
            <mxPoint x="559" y="685" as="sourcePoint" />
            <mxPoint x="269" y="685" as="targetPoint" />
            <Array as="points">
              <mxPoint x="559" y="715" />
              <mxPoint x="269" y="715" />
            </Array>
          </mxGeometry>
        </mxCell>
        <mxCell id="KW5WF26nbx8zZvVIEH4P-8" value="Estado" style="edgeLabel;html=1;align=center;verticalAlign=middle;resizable=0;points=[];fontFamily=Times New Roman;fontSize=15;" parent="KW5WF26nbx8zZvVIEH4P-7" vertex="1" connectable="0">
          <mxGeometry x="-0.0556" y="1" relative="1" as="geometry">
            <mxPoint x="-14" y="-11" as="offset" />
          </mxGeometry>
        </mxCell>
        <mxCell id="KW5WF26nbx8zZvVIEH4P-9" value="&lt;font style=&quot;font-size: 32px;&quot; face=&quot;Times New Roman&quot;&gt;v&lt;/font&gt;" style="ellipse;whiteSpace=wrap;html=1;aspect=fixed;" parent="1" vertex="1">
          <mxGeometry x="400" y="930" width="80" height="80" as="geometry" />
        </mxCell>
        <mxCell id="KW5WF26nbx8zZvVIEH4P-29" style="rounded=0;orthogonalLoop=1;jettySize=auto;html=1;entryX=0;entryY=0;entryDx=0;entryDy=0;" parent="1" source="KW5WF26nbx8zZvVIEH4P-10" target="KW5WF26nbx8zZvVIEH4P-9" edge="1">
          <mxGeometry relative="1" as="geometry" />
        </mxCell>
        <mxCell id="KW5WF26nbx8zZvVIEH4P-10" value="" style="ellipse;whiteSpace=wrap;html=1;aspect=fixed;" parent="1" vertex="1">
          <mxGeometry x="229" y="810" width="80" height="80" as="geometry" />
        </mxCell>
        <mxCell id="KW5WF26nbx8zZvVIEH4P-30" style="rounded=0;orthogonalLoop=1;jettySize=auto;html=1;entryX=0;entryY=0.5;entryDx=0;entryDy=0;" parent="1" source="KW5WF26nbx8zZvVIEH4P-11" target="KW5WF26nbx8zZvVIEH4P-9" edge="1">
          <mxGeometry relative="1" as="geometry" />
        </mxCell>
        <mxCell id="KW5WF26nbx8zZvVIEH4P-11" value="" style="ellipse;whiteSpace=wrap;html=1;aspect=fixed;" parent="1" vertex="1">
          <mxGeometry x="229" y="930" width="80" height="80" as="geometry" />
        </mxCell>
        <mxCell id="KW5WF26nbx8zZvVIEH4P-31" style="rounded=0;orthogonalLoop=1;jettySize=auto;html=1;entryX=0;entryY=1;entryDx=0;entryDy=0;" parent="1" source="KW5WF26nbx8zZvVIEH4P-12" target="KW5WF26nbx8zZvVIEH4P-9" edge="1">
          <mxGeometry relative="1" as="geometry" />
        </mxCell>
        <mxCell id="KW5WF26nbx8zZvVIEH4P-12" value="" style="ellipse;whiteSpace=wrap;html=1;aspect=fixed;" parent="1" vertex="1">
          <mxGeometry x="229" y="1050" width="80" height="80" as="geometry" />
        </mxCell>
        <mxCell id="KW5WF26nbx8zZvVIEH4P-18" value="" style="group" parent="1" vertex="1" connectable="0">
          <mxGeometry x="150" y="800" width="80" height="30" as="geometry" />
        </mxCell>
        <mxCell id="KW5WF26nbx8zZvVIEH4P-13" value="" style="rounded=1;whiteSpace=wrap;html=1;" parent="KW5WF26nbx8zZvVIEH4P-18" vertex="1">
          <mxGeometry width="80" height="30" as="geometry" />
        </mxCell>
        <mxCell id="KW5WF26nbx8zZvVIEH4P-14" value="" style="endArrow=none;html=1;rounded=0;exitX=0.25;exitY=1;exitDx=0;exitDy=0;entryX=0.25;entryY=0;entryDx=0;entryDy=0;" parent="KW5WF26nbx8zZvVIEH4P-18" source="KW5WF26nbx8zZvVIEH4P-13" target="KW5WF26nbx8zZvVIEH4P-13" edge="1">
          <mxGeometry width="50" height="50" relative="1" as="geometry">
            <mxPoint x="-31" y="50" as="sourcePoint" />
            <mxPoint x="19" as="targetPoint" />
          </mxGeometry>
        </mxCell>
        <mxCell id="KW5WF26nbx8zZvVIEH4P-15" value="" style="endArrow=none;html=1;rounded=0;exitX=0.25;exitY=1;exitDx=0;exitDy=0;entryX=0.25;entryY=0;entryDx=0;entryDy=0;" parent="KW5WF26nbx8zZvVIEH4P-18" edge="1">
          <mxGeometry width="50" height="50" relative="1" as="geometry">
            <mxPoint x="40" y="30" as="sourcePoint" />
            <mxPoint x="40" as="targetPoint" />
          </mxGeometry>
        </mxCell>
        <mxCell id="KW5WF26nbx8zZvVIEH4P-16" value="" style="endArrow=none;html=1;rounded=0;exitX=0.25;exitY=1;exitDx=0;exitDy=0;entryX=0.25;entryY=0;entryDx=0;entryDy=0;" parent="KW5WF26nbx8zZvVIEH4P-18" edge="1">
          <mxGeometry width="50" height="50" relative="1" as="geometry">
            <mxPoint x="60" y="30" as="sourcePoint" />
            <mxPoint x="60" as="targetPoint" />
          </mxGeometry>
        </mxCell>
        <mxCell id="KW5WF26nbx8zZvVIEH4P-19" value="" style="group" parent="1" vertex="1" connectable="0">
          <mxGeometry x="150" y="920" width="80" height="30" as="geometry" />
        </mxCell>
        <mxCell id="KW5WF26nbx8zZvVIEH4P-20" value="" style="rounded=1;whiteSpace=wrap;html=1;" parent="KW5WF26nbx8zZvVIEH4P-19" vertex="1">
          <mxGeometry width="80" height="30" as="geometry" />
        </mxCell>
        <mxCell id="KW5WF26nbx8zZvVIEH4P-21" value="" style="endArrow=none;html=1;rounded=0;exitX=0.25;exitY=1;exitDx=0;exitDy=0;entryX=0.25;entryY=0;entryDx=0;entryDy=0;" parent="KW5WF26nbx8zZvVIEH4P-19" source="KW5WF26nbx8zZvVIEH4P-20" target="KW5WF26nbx8zZvVIEH4P-20" edge="1">
          <mxGeometry width="50" height="50" relative="1" as="geometry">
            <mxPoint x="-31" y="50" as="sourcePoint" />
            <mxPoint x="19" as="targetPoint" />
          </mxGeometry>
        </mxCell>
        <mxCell id="KW5WF26nbx8zZvVIEH4P-22" value="" style="endArrow=none;html=1;rounded=0;exitX=0.25;exitY=1;exitDx=0;exitDy=0;entryX=0.25;entryY=0;entryDx=0;entryDy=0;" parent="KW5WF26nbx8zZvVIEH4P-19" edge="1">
          <mxGeometry width="50" height="50" relative="1" as="geometry">
            <mxPoint x="40" y="30" as="sourcePoint" />
            <mxPoint x="40" as="targetPoint" />
          </mxGeometry>
        </mxCell>
        <mxCell id="KW5WF26nbx8zZvVIEH4P-23" value="" style="endArrow=none;html=1;rounded=0;exitX=0.25;exitY=1;exitDx=0;exitDy=0;entryX=0.25;entryY=0;entryDx=0;entryDy=0;" parent="KW5WF26nbx8zZvVIEH4P-19" edge="1">
          <mxGeometry width="50" height="50" relative="1" as="geometry">
            <mxPoint x="60" y="30" as="sourcePoint" />
            <mxPoint x="60" as="targetPoint" />
          </mxGeometry>
        </mxCell>
        <mxCell id="KW5WF26nbx8zZvVIEH4P-24" value="" style="group" parent="1" vertex="1" connectable="0">
          <mxGeometry x="150" y="1040" width="80" height="30" as="geometry" />
        </mxCell>
        <mxCell id="KW5WF26nbx8zZvVIEH4P-25" value="" style="rounded=1;whiteSpace=wrap;html=1;" parent="KW5WF26nbx8zZvVIEH4P-24" vertex="1">
          <mxGeometry width="80" height="30" as="geometry" />
        </mxCell>
        <mxCell id="KW5WF26nbx8zZvVIEH4P-26" value="" style="endArrow=none;html=1;rounded=0;exitX=0.25;exitY=1;exitDx=0;exitDy=0;entryX=0.25;entryY=0;entryDx=0;entryDy=0;" parent="KW5WF26nbx8zZvVIEH4P-24" source="KW5WF26nbx8zZvVIEH4P-25" target="KW5WF26nbx8zZvVIEH4P-25" edge="1">
          <mxGeometry width="50" height="50" relative="1" as="geometry">
            <mxPoint x="-31" y="50" as="sourcePoint" />
            <mxPoint x="19" as="targetPoint" />
          </mxGeometry>
        </mxCell>
        <mxCell id="KW5WF26nbx8zZvVIEH4P-27" value="" style="endArrow=none;html=1;rounded=0;exitX=0.25;exitY=1;exitDx=0;exitDy=0;entryX=0.25;entryY=0;entryDx=0;entryDy=0;" parent="KW5WF26nbx8zZvVIEH4P-24" edge="1">
          <mxGeometry width="50" height="50" relative="1" as="geometry">
            <mxPoint x="40" y="30" as="sourcePoint" />
            <mxPoint x="40" as="targetPoint" />
          </mxGeometry>
        </mxCell>
        <mxCell id="KW5WF26nbx8zZvVIEH4P-28" value="" style="endArrow=none;html=1;rounded=0;exitX=0.25;exitY=1;exitDx=0;exitDy=0;entryX=0.25;entryY=0;entryDx=0;entryDy=0;" parent="KW5WF26nbx8zZvVIEH4P-24" edge="1">
          <mxGeometry width="50" height="50" relative="1" as="geometry">
            <mxPoint x="60" y="30" as="sourcePoint" />
            <mxPoint x="60" as="targetPoint" />
          </mxGeometry>
        </mxCell>
        <mxCell id="KW5WF26nbx8zZvVIEH4P-32" value="" style="group" parent="1" vertex="1" connectable="0">
          <mxGeometry x="480" y="920" width="80" height="30" as="geometry" />
        </mxCell>
        <mxCell id="KW5WF26nbx8zZvVIEH4P-33" value="" style="rounded=1;whiteSpace=wrap;html=1;" parent="KW5WF26nbx8zZvVIEH4P-32" vertex="1">
          <mxGeometry width="80" height="30" as="geometry" />
        </mxCell>
        <mxCell id="KW5WF26nbx8zZvVIEH4P-34" value="" style="endArrow=none;html=1;rounded=0;exitX=0.25;exitY=1;exitDx=0;exitDy=0;entryX=0.25;entryY=0;entryDx=0;entryDy=0;" parent="KW5WF26nbx8zZvVIEH4P-32" source="KW5WF26nbx8zZvVIEH4P-33" target="KW5WF26nbx8zZvVIEH4P-33" edge="1">
          <mxGeometry width="50" height="50" relative="1" as="geometry">
            <mxPoint x="-31" y="50" as="sourcePoint" />
            <mxPoint x="19" as="targetPoint" />
          </mxGeometry>
        </mxCell>
        <mxCell id="KW5WF26nbx8zZvVIEH4P-35" value="" style="endArrow=none;html=1;rounded=0;exitX=0.25;exitY=1;exitDx=0;exitDy=0;entryX=0.25;entryY=0;entryDx=0;entryDy=0;" parent="KW5WF26nbx8zZvVIEH4P-32" edge="1">
          <mxGeometry width="50" height="50" relative="1" as="geometry">
            <mxPoint x="40" y="30" as="sourcePoint" />
            <mxPoint x="40" as="targetPoint" />
          </mxGeometry>
        </mxCell>
        <mxCell id="KW5WF26nbx8zZvVIEH4P-36" value="" style="endArrow=none;html=1;rounded=0;exitX=0.25;exitY=1;exitDx=0;exitDy=0;entryX=0.25;entryY=0;entryDx=0;entryDy=0;" parent="KW5WF26nbx8zZvVIEH4P-32" edge="1">
          <mxGeometry width="50" height="50" relative="1" as="geometry">
            <mxPoint x="60" y="30" as="sourcePoint" />
            <mxPoint x="60" as="targetPoint" />
          </mxGeometry>
        </mxCell>
      </root>
    </mxGraphModel>
  </diagram>
</mxfile>
